<svg width="512" height="512" viewBox="0 0 512 512" fill="none" xmlns="http://www.w3.org/2000/svg">
<rect width="512" height="512" rx="100" fill="#3B82F6"/>
<path d="M146.892 151.583C132.33 151.724 120.64 163.643 120.782 178.205C120.923 192.766 132.842 204.456 147.404 204.314L147.148 177.949L146.892 151.583ZM364.6 204.315C379.161 204.454 391.079 192.763 391.218 178.201C391.358 163.64 379.667 151.722 365.105 151.583L364.852 177.949L364.6 204.315ZM255.307 176.898L255.56 150.532L255.306 150.53L255.051 150.532L255.307 176.898ZM217.505 280.943H191.138V281.411L191.154 281.878L217.505 280.943ZM147.148 177.949L147.404 204.314L255.563 203.264L255.307 176.898L255.051 150.532L146.892 151.583L147.148 177.949ZM255.307 176.898L255.055 203.264L364.6 204.315L364.852 177.949L365.105 151.583L255.56 150.532L255.307 176.898ZM255.307 176.898L232.297 164.024C221.781 182.818 211.764 204.984 204.322 225.251C197.301 244.371 191.138 265.557 191.138 280.943H217.505H243.872C243.872 275.83 246.833 262.469 253.824 243.428C260.395 225.534 269.279 205.927 278.317 189.773L255.307 176.898ZM217.505 280.943L191.154 281.878C191.724 297.914 194.753 315.543 205.611 330.743C216.869 346.501 233.754 355.848 254.296 360.749L260.415 335.102L266.534 309.454C254.383 306.555 250.302 302.581 248.521 300.089C246.342 297.039 244.263 291.489 243.855 280.007L217.505 280.943Z" fill="white"/>
<path d="M213.418 285.029L269.1 298.822M222.102 242.119L280.338 255.4M238.96 199.719L291.577 211.979M220.059 300.354L265.524 312.615" stroke="white" stroke-width="24.5204"/>
</svg>
