<svg width="512" height="512" viewBox="0 0 512 512" fill="none" xmlns="http://www.w3.org/2000/svg">
<path d="M69.7886 77.7943C44.9369 78.0356 24.9863 98.3774 25.2276 123.229C25.4689 148.081 45.8107 168.031 70.6623 167.79L70.2255 122.792L69.7886 77.7943ZM441.343 167.79C466.195 168.028 486.534 148.075 486.773 123.224C487.011 98.3719 467.058 78.0325 442.206 77.7943L441.775 122.792L441.343 167.79ZM254.818 121L255.249 76.0021L254.815 75.9979L254.381 76.0021L254.818 121ZM190.302 298.569H145.302V299.367L145.33 300.165L190.302 298.569ZM70.2255 122.792L70.6623 167.79L255.255 165.998L254.818 121L254.381 76.0021L69.7886 77.7943L70.2255 122.792ZM254.818 121L254.386 165.998L441.343 167.79L441.775 122.792L442.206 77.7943L255.249 76.0021L254.818 121ZM254.818 121L215.547 99.0271C197.6 131.103 180.504 168.933 167.803 203.521C155.82 236.153 145.302 272.311 145.302 298.569H190.302H235.302C235.302 289.844 240.354 267.04 252.287 234.544C263.501 204.005 278.663 170.542 294.089 142.973L254.818 121ZM190.302 298.569L145.33 300.165C146.302 327.533 151.471 357.62 170.004 383.562C189.216 410.455 218.033 426.407 253.093 434.772L263.536 391L273.979 347.229C253.241 342.281 246.275 335.499 243.236 331.245C239.518 326.04 235.969 316.567 235.273 296.972L190.302 298.569Z" fill="white"/>
<path d="M183.327 305.543L278.357 329.083M198.148 232.309L297.537 254.977M226.919 159.947L316.718 180.871M194.661 331.699L272.254 352.623" stroke="white" stroke-width="41.8481"/>
</svg>
