<svg width="512" height="512" viewBox="0 0 512 512" fill="none" xmlns="http://www.w3.org/2000/svg">
<rect width="512" height="512" rx="100" fill="white"/>
<path d="M116.341 122.346C97.7027 122.527 82.7397 137.783 82.9207 156.422C83.1016 175.061 98.358 190.024 116.997 189.843L116.669 156.094L116.341 122.346ZM395.007 189.843C413.646 190.021 428.901 175.056 429.079 156.418C429.258 137.779 414.293 122.524 395.654 122.346L395.331 156.094L395.007 189.843ZM255.113 154.75L255.437 121.002L255.111 120.998L254.786 121.002L255.113 154.75ZM206.726 287.927H172.976V288.526L172.997 289.124L206.726 287.927ZM116.669 156.094L116.997 189.843L255.441 188.498L255.113 154.75L254.786 121.002L116.341 122.346L116.669 156.094ZM255.113 154.75L254.79 188.498L395.007 189.843L395.331 156.094L395.654 122.346L255.437 121.002L255.113 154.75ZM255.113 154.75L225.66 138.27C212.2 162.327 199.378 190.7 189.852 216.641C180.865 241.115 172.976 268.233 172.976 287.927H206.726H240.476C240.476 281.383 244.266 264.28 253.215 239.908C261.626 217.004 272.997 191.906 284.566 171.23L255.113 154.75ZM206.726 287.927L172.997 289.124C173.726 309.65 177.603 332.215 191.503 351.671C205.912 371.841 227.525 383.805 253.82 390.079L261.652 357.25L269.484 324.422C253.93 320.711 248.706 315.624 246.427 312.434C243.638 308.53 240.977 301.425 240.455 286.729L206.726 287.927Z" fill="black"/>
<path d="M201.495 293.157L272.768 310.812M212.611 238.232L287.153 255.232M234.189 183.96L301.538 199.653M209.996 312.774L268.191 328.467" stroke="black" stroke-width="31.3861"/>
</svg>
